<?xml version="1.0" standalone="no"?>
<!DOCTYPE svg PUBLIC "-//W3C//DTD SVG 20010904//EN"
 "http://www.w3.org/TR/2001/REC-SVG-20010904/DTD/svg10.dtd">
<svg version="1.0" xmlns="http://www.w3.org/2000/svg"
 width="16.000000pt" height="16.000000pt" viewBox="0 0 16.000000 16.000000"
 preserveAspectRatio="xMidYMid meet">
<metadata>
Created by potrace 1.11, written by Peter Selinger 2001-2013
</metadata>
<g transform="translate(0.000000,16.000000) scale(0.006154,-0.006154)"
fill="#000000" stroke="none">
<path d="M1846 2262 c-116 -120 -177 -190 -270 -312 -87 -113 -256 -364 -256
-379 0 -6 -4 -11 -10 -11 -5 0 -10 -4 -10 -9 0 -6 -13 -29 -29 -53 -15 -24
-63 -96 -105 -160 -42 -64 -80 -119 -85 -122 -14 -9 -31 108 -46 304 -5 75
-10 125 -20 221 -18 160 -84 320 -162 389 -27 23 -49 46 -49 51 -1 5 -2 18 -3
29 -2 32 -69 99 -112 112 -39 11 -40 11 -96 -39 -33 -29 -63 -64 -70 -84 -15
-43 -14 -211 2 -344 7 -55 12 -199 12 -320 0 -194 2 -227 20 -275 11 -30 20
-82 21 -115 3 -71 10 -134 22 -195 6 -25 12 -56 14 -70 2 -14 11 -55 20 -91
16 -72 19 -84 36 -173 6 -32 20 -67 30 -78 20 -21 40 -90 40 -136 0 -19 7 -33
23 -41 12 -7 37 -32 56 -57 85 -113 231 -115 329 -6 53 58 71 102 74 179 4 65
6 73 46 119 23 27 53 63 67 79 30 36 60 97 70 145 5 21 24 50 50 75 23 23 53
66 67 96 61 133 218 353 438 614 179 212 210 254 210 278 0 12 14 51 32 86 19
38 28 66 21 68 -6 2 -9 20 -7 41 3 26 -8 65 -35 132 l-38 95 -39 3 c-21 1 -48
7 -59 12 -11 6 -39 16 -62 24 l-43 15 -94 -97z"/>
</g>
</svg>
